<svg version="1.2" xmlns="http://www.w3.org/2000/svg" viewBox="0 0 35 35" width="35" height="35"><defs><clipPath clipPathUnits="userSpaceOnUse" id="cp1"><path d="m-328-37h375v845h-375z"/></clipPath></defs><style>.a{fill:#191f2c}</style><g clip-path="url(#cp1)"><path fill-rule="evenodd" class="a" d="m17.5 35c-9.7 0-17.5-7.8-17.5-17.5 0-9.7 7.8-17.5 17.5-17.5 9.7 0 17.5 7.8 17.5 17.5 0 9.7-7.8 17.5-17.5 17.5zm0-32.7c-8.4 0-15.2 6.8-15.2 15.2 0 8.4 6.8 15.2 15.2 15.2 8.4 0 15.2-6.8 15.2-15.2 0-8.4-6.8-15.2-15.2-15.2z"/><path class="a" d="m23.3 18.7h-11.6c-0.7 0-1.2-0.6-1.2-1.2 0-0.6 0.5-1.2 1.2-1.2h11.6c0.7 0 1.2 0.6 1.2 1.2 0 0.6-0.5 1.2-1.2 1.2z"/><path class="a" d="m23.3 12.8h-11.6c-0.7 0-1.2-0.5-1.2-1.1 0-0.7 0.5-1.2 1.2-1.2h11.6c0.7 0 1.2 0.5 1.2 1.2 0 0.6-0.5 1.1-1.2 1.1z"/><path class="a" d="m23.3 24.5h-11.6c-0.7 0-1.2-0.5-1.2-1.2 0-0.6 0.5-1.1 1.2-1.1h11.6c0.7 0 1.2 0.5 1.2 1.1 0 0.7-0.5 1.2-1.2 1.2z"/></g></svg>